<svg width="82" height="23" viewBox="0 0 82 23" fill="none" xmlns="http://www.w3.org/2000/svg">
<path d="M66.5335 10.6351H68.2409C68.8161 10.6351 69.2726 11.1019 69.2726 11.6694V11.6785C69.2726 12.2551 68.8069 12.7128 68.2409 12.7128H66.5335C65.9582 12.7128 65.5017 12.246 65.5017 11.6785V11.6694C65.4926 11.1019 65.9582 10.6351 66.5335 10.6351Z" fill="#B6B6B6"/>
<path d="M64.5161 12.5843V14.2958C64.5161 14.5978 64.7626 14.8449 65.0639 14.8449H69.9396C70.1496 14.8449 70.3322 15.0188 70.3322 15.2385V16.5564C70.3322 16.767 70.1587 16.95 69.9396 16.95H63.2378C62.6626 16.95 62.1878 16.4832 62.1878 15.8975V7.26665C62.1878 6.69004 62.6535 6.21411 63.2378 6.21411H69.7022C70.0035 6.21411 70.25 6.46123 70.25 6.76326V7.77004C70.25 8.07207 70.0035 8.31919 69.7022 8.31919H65.0548C64.7535 8.31919 64.5069 8.56631 64.5069 8.86834V10.4975V12.5843H64.5161Z" fill="#B6B6B6"/>
<path d="M35.9102 16.7764L35.0885 14.7536C35.052 14.6621 34.9698 14.6072 34.8693 14.6072H30.6511C30.5598 14.6072 30.4685 14.6621 30.432 14.7536L29.6102 16.7764C29.5463 16.9228 29.4093 17.0143 29.2541 17.0143H27.702C27.428 17.0143 27.2363 16.7306 27.3459 16.4743L31.2811 7.20282C31.5367 6.59876 32.1302 6.2052 32.7967 6.2052C33.4541 6.2052 34.0476 6.59876 34.3124 7.20282L38.2385 16.4743C38.348 16.7306 38.1563 17.0143 37.8824 17.0143H36.2663C36.1111 17.0235 35.965 16.9228 35.9102 16.7764ZM32.5502 9.57332L31.4728 12.2092C31.4089 12.3648 31.5185 12.5296 31.692 12.5296H33.8467C34.0111 12.5296 34.1206 12.3648 34.0659 12.2092L32.9885 9.57332C32.8972 9.38112 32.6233 9.38112 32.5502 9.57332Z" fill="#B6B6B6"/>
<path d="M44.337 8.69544V16.6307C44.337 16.8412 44.1636 17.0242 43.9444 17.0242H42.3649C42.1549 17.0242 41.9722 16.8503 41.9722 16.6307V8.69544C41.9722 8.5673 41.8718 8.45747 41.7349 8.45747H39.0962C38.8862 8.45747 38.7036 8.28357 38.7036 8.06391V6.67273C38.7036 6.46223 38.877 6.27917 39.0962 6.27917H47.1949C47.4049 6.27917 47.5875 6.45307 47.5875 6.67273V8.07307C47.5875 8.28358 47.414 8.46663 47.1949 8.46663H44.5562C44.4375 8.46663 44.337 8.5673 44.337 8.69544Z" fill="#B6B6B6"/>
<path d="M56.7824 16.6307V12.9422C56.7824 12.8141 56.682 12.7042 56.545 12.7042H52.6646C52.5368 12.7042 52.4272 12.8049 52.4272 12.9422V16.6307C52.4272 16.8412 52.2537 17.0242 52.0346 17.0242H50.4733C50.2633 17.0242 50.0807 16.8503 50.0807 16.6307V6.67273C50.0807 6.46223 50.2542 6.27917 50.4733 6.27917H52.0529C52.2629 6.27917 52.4455 6.45307 52.4455 6.67273V10.2971C52.4455 10.4253 52.5459 10.5351 52.6829 10.5351H56.5633C56.6911 10.5351 56.8007 10.4344 56.8007 10.2971V6.67273C56.8007 6.46223 56.9742 6.27917 57.1933 6.27917H58.7729C58.9829 6.27917 59.1655 6.45307 59.1655 6.67273V16.6307C59.1655 16.8412 58.992 17.0242 58.7729 17.0242H57.1933C56.965 17.0242 56.7824 16.8412 56.7824 16.6307Z" fill="#B6B6B6"/>
<path d="M79.4164 16.8497L77.3073 13.6921C77.2616 13.628 77.1886 13.5914 77.1155 13.5914H75.5268C75.4538 13.5914 75.3899 13.6555 75.3899 13.7287V16.6301C75.3899 16.8406 75.2164 17.0236 74.9973 17.0236H73.4177C73.2077 17.0236 73.0251 16.8497 73.0251 16.6301V6.70874C73.0251 6.47992 73.2168 6.28772 73.4451 6.28772H77.919C79.1973 6.28772 80.1834 6.5989 80.8955 7.22128C81.6077 7.84365 81.9547 8.71314 81.9547 9.82974V9.8572C81.9547 10.7267 81.7447 11.4314 81.3155 11.9806C80.9229 12.484 80.4299 12.8592 79.8181 13.1155C79.736 13.1521 79.6994 13.2528 79.7542 13.326L81.8542 16.4104C82.0277 16.6667 81.8451 17.0236 81.5347 17.0236H79.7268C79.6081 17.0236 79.4894 16.9504 79.4164 16.8497ZM79.5716 9.94872C79.5716 9.43618 79.4073 9.05178 79.0786 8.79551C78.7499 8.53924 78.3025 8.4111 77.7181 8.4111H75.609C75.4812 8.4111 75.3716 8.51178 75.3716 8.64907V11.2667C75.3716 11.3948 75.472 11.5047 75.609 11.5047H77.7729C78.3573 11.5047 78.8047 11.3674 79.1151 11.0928C79.4255 10.8182 79.5807 10.4521 79.5807 9.98533L79.5716 9.94872Z" fill="#B6B6B6"/>
<path d="M22.89 11.4223C22.9083 17.6643 17.8591 22.9087 11.4587 22.9179C5.14044 22.927 0 17.8016 0 11.4589C0 5.11625 5.14044 0.00915251 11.4496 0C17.7404 0 22.8718 5.13456 22.89 11.4223ZM11.4131 1.72067C6.07174 1.73898 1.74391 6.10473 1.75304 11.4315C1.76218 16.7766 6.1174 21.1148 11.4587 21.1148C16.7909 21.1057 21.1278 16.7491 21.1278 11.4132C21.1187 6.02235 16.727 1.70237 11.4131 1.72067Z" fill="#B6B6B6"/>
<path d="M10.0067 7.91738C10.0158 8.21942 10.0888 8.49399 10.2258 8.75941C10.6823 9.64721 11.1297 10.5442 11.5862 11.4319C12.1249 12.4936 12.6636 13.5462 13.2023 14.6079C13.4397 15.0838 13.814 15.4041 14.3254 15.5414C15.3936 15.8435 16.471 15.1021 16.5714 13.9947C16.608 13.6377 16.5258 13.2991 16.3614 12.9787C15.9597 12.1916 15.558 11.4045 15.1654 10.6174C14.581 9.46416 13.9875 8.31094 13.4032 7.14857C13.1932 6.72756 12.8736 6.42552 12.4353 6.25163C11.3762 5.83976 10.2167 6.49874 10.034 7.61535C10.0249 7.72518 10.0158 7.8167 10.0067 7.91738Z" fill="#B6B6B6"/>
<path d="M6.30026 13.5088C6.30026 14.6711 7.24983 15.6138 8.40026 15.6138C9.5507 15.6138 10.4911 14.662 10.4911 13.5179C10.4911 12.3647 9.54157 11.4128 8.39113 11.4128C7.2407 11.4128 6.30026 12.3555 6.30026 13.5088Z" fill="#B6B6B6"/>
</svg>
