<svg width="24" height="24" viewBox="0 0 24 24" fill="none" xmlns="http://www.w3.org/2000/svg">
<path d="M21.8438 3.9375C22.6875 4.3125 23.25 5.10938 23.25 6C23.25 18.1875 14.2969 24 11.9531 24C9.60938 24 0.75 18.0938 0.75 6C0.75 5.10938 1.26562 4.3125 2.10938 3.9375L11.1094 0.1875C11.3906 0.09375 11.6719 0.046875 12 0.046875C12.2812 0.046875 12.5625 0.09375 12.8438 0.1875L21.8438 3.9375ZM21.7031 6.04688C21.7031 5.90625 21.7031 5.53125 21.2812 5.34375L12.2812 1.59375C12.1875 1.54688 12.0938 1.5 12 1.5C11.8594 1.5 11.7656 1.54688 11.6719 1.59375L2.67188 5.34375C2.39062 5.4375 2.25 5.71875 2.25 6C2.25 16.5469 9.98438 22.5 12 22.5C13.9219 22.5 21.7031 16.5938 21.7031 6.04688ZM15.75 8.53125C16.1719 8.53125 16.5 8.85938 16.5 9.28125C16.5 9.46875 16.4062 9.65625 16.2656 9.79688L11.25 14.8125C11.1094 14.9531 10.9219 15 10.7344 15C10.5469 15 10.3594 14.9531 10.2188 14.8125L7.6875 12.3281C7.54688 12.1406 7.5 11.9531 7.5 11.7656C7.5 11.3906 7.78125 11.0156 8.25 11.0156C8.4375 11.0156 8.625 11.1094 8.76562 11.25L10.7344 13.2188L15.1875 8.71875C15.3281 8.57812 15.5156 8.53125 15.75 8.53125Z" fill="#FDE16A"/>
</svg>
