<svg width="33" height="25" viewBox="0 0 33 25" fill="none" xmlns="http://www.w3.org/2000/svg">
<path d="M26.767 13.7001L20.5761 21.5213H14.051L10.4971 19.0186" stroke="#FDE16A" stroke-width="1.4" stroke-linecap="round" stroke-linejoin="round"/>
<path d="M16.688 14.0166L9.58015 15.8642L2.17383 9.53485L3.16527 7.69336L11.3962 10.2874L16.7496 13.5782L16.688 14.0166Z" stroke="#FDE16A" stroke-width="1.4" stroke-linecap="round" stroke-linejoin="round"/>
<path d="M19.7559 8.04673L23.1238 7.69116L26.0747 10.5152L26.8447 13.5618" stroke="#FDE16A" stroke-width="1.4" stroke-linecap="round" stroke-linejoin="round"/>
<path d="M19.9367 8.0708L21.3851 12.6565L19.1924 16.6856" stroke="#FDE16A" stroke-width="1.4" stroke-linecap="round" stroke-linejoin="round"/>
<path d="M23.7005 8.09566V6.37742L21.6997 4.32849L19.0449 4.9375" stroke="#FDE16A" stroke-width="1.4" stroke-linecap="round" stroke-linejoin="round"/>
<path d="M1 15.8631L5.71369 12.8507" stroke="#FDE16A" stroke-width="1.4" stroke-linecap="round" stroke-linejoin="round"/>
<path d="M28.8542 24.0002C30.5605 24.0002 31.9437 22.6165 31.9437 20.9097C31.9437 19.2028 30.5605 17.8191 28.8542 17.8191C27.1479 17.8191 25.7646 19.2028 25.7646 20.9097C25.7646 22.6165 27.1479 24.0002 28.8542 24.0002Z" stroke="#FDE16A" stroke-width="1.4" stroke-linecap="round" stroke-linejoin="round"/>
<path d="M5.17256 24.0002C6.87887 24.0002 8.2621 22.6165 8.2621 20.9097C8.2621 19.2028 6.87887 17.8191 5.17256 17.8191C3.46625 17.8191 2.08301 19.2028 2.08301 20.9097C2.08301 22.6165 3.46625 24.0002 5.17256 24.0002Z" stroke="#FDE16A" stroke-width="1.4" stroke-linecap="round" stroke-linejoin="round"/>
<path d="M21.4814 4.41337L20.5557 2.38939L21.0734 1.56889L20.0186 1L21.644 1.89398" stroke="#FDE16A" stroke-width="1.4" stroke-linecap="round" stroke-linejoin="round"/>
</svg>
