<svg width="30" height="24" viewBox="0 0 30 24" fill="none" xmlns="http://www.w3.org/2000/svg">
<path d="M4.5 3V8.25C4.5 9.51562 3.46875 10.5 2.25 10.5C0.984375 10.5 0 9.51562 0 8.25V7.5C0 7.125 0.328125 6.75 0.75 6.75C1.125 6.75 1.5 7.125 1.5 7.5V8.25C1.5 8.67188 1.82812 9 2.25 9C2.625 9 3 8.67188 3 8.25V1.5C3 0.984375 3.28125 0.46875 3.75 0.234375C3.9375 0.09375 4.21875 0 4.5 0H6.79688C7.21875 0 7.64062 0.1875 7.92188 0.515625L18 11.8125V6.75C18 5.53125 18.9844 4.5 20.25 4.5H22.875C23.8125 4.5 24.6562 4.96875 25.2656 5.67188L29.4844 11.1562C29.8125 11.5312 30 12.0469 30 12.5156V17.25C30 18.5156 28.9688 19.5 27.75 19.5H27C27 21.9844 24.9844 24 22.5 24C19.9688 24 18 21.9844 18 19.5H12C12 21.9844 9.98438 24 7.5 24C4.96875 24 3 21.9844 3 19.5H2.25C0.984375 19.5 0 18.5156 0 17.25V14.25C0 13.0312 0.984375 12 2.25 12H9L4.5 3ZM11.7188 18H18.2344C18.8438 16.2656 20.5312 15 22.5 15C24.4219 15 26.1094 16.2656 26.7188 18H27.75C28.125 18 28.5 17.6719 28.5 17.25V13.5H2.25C1.82812 13.5 1.5 13.875 1.5 14.25V17.25C1.5 17.6719 1.82812 18 2.25 18H3.23438C3.84375 16.2656 5.53125 15 7.5 15C9.42188 15 11.1094 16.2656 11.7188 18ZM19.5 19.5C19.5 21.1875 20.8125 22.5 22.5 22.5C24.1406 22.5 25.5 21.1875 25.5 19.5C25.5 17.8594 24.1406 16.5 22.5 16.5C20.8125 16.5 19.5 17.8594 19.5 19.5ZM22.875 6H20.25C19.8281 6 19.5 6.375 19.5 6.75V12H28.2656L24.0469 6.60938C23.7656 6.23438 23.3438 6 22.875 6ZM5.39062 1.5L10.6406 12H16.125L6.79688 1.5H5.39062ZM7.5 16.5C5.8125 16.5 4.5 17.8594 4.5 19.5C4.5 21.1875 5.8125 22.5 7.5 22.5C9.14062 22.5 10.5 21.1875 10.5 19.5C10.5 17.8594 9.14062 16.5 7.5 16.5Z" fill="#FDE16A"/>
</svg>
